<svg xmlns="http://www.w3.org/2000/svg" version="1.0" width="1226.000000pt" height="290.000000pt" viewBox="0 0 1226.000000 290.000000" preserveAspectRatio="xMidYMid meet">

<g transform="translate(0.000000,290.000000) scale(0.100000,-0.100000)" fill="#a4a5a7" stroke="none">
<path d="M1880 2869 c-19 -12 -54 -39 -78 -61 -92 -84 -150 -86 -320 -12 -117 52 -194 65 -255 45 -49 -17 -111 -82 -147 -155 -40 -82 -230 -629 -230 -663 0 -92 163 -265 385 -408 308 -199 671 -327 1051 -371 187 -22 445 -15 558 15 217 57 316 156 316 313 0 81 -156 772 -189 837 -40 77 -118 139 -276 218 -249 125 -637 263 -739 263 -24 0 -56 -9 -76 -21z" fill="#a4a5a7"/>
<path d="M8185 2234 c-33 -8 -102 -24 -152 -35 l-93 -21 0 -208 0 -208 -40 19 c-104 51 -277 66 -395 34 -196 -52 -342 -191 -401 -381 -24 -76 -26 -96 -22 -197 6 -131 26 -195 95 -299 152 -231 474 -317 710 -189 l52 29 3 -37 3 -36 168 -3 167 -2 0 775 c0 732 -1 775 -17 774 -10 -1 -45 -8 -78 -15z m-371 -708 c27 -8 66 -26 87 -40 l39 -26 0 -195 0 -195 -42 -30 c-54 -39 -107 -54 -193 -54 -165 0 -287 116 -287 274 0 117 53 202 157 251 69 33 159 39 239 15z" fill="#a4a5a7"/>
<path d="M4520 1440 l0 -740 180 0 180 0 0 270 0 270 138 0 138 0 133 -257 c73 -142 138 -264 143 -270 8 -10 62 -13 209 -13 110 0 199 2 199 4 0 3 -73 137 -161 297 -95 173 -157 295 -150 297 42 14 140 94 176 144 169 229 86 558 -171 680 -113 53 -160 58 -606 58 l-408 0 0 -740z m820 404 c54 -31 80 -77 80 -142 0 -69 -26 -113 -84 -141 -39 -19 -60 -21 -249 -21 l-207 0 0 166 0 166 213 -4 c192 -3 215 -5 247 -24z" fill="#a4a5a7"/>
<path d="M8790 1440 l0 -740 183 2 182 3 3 288 2 287 300 0 300 0 0 -290 0 -290 180 0 180 0 0 740 0 740 -180 0 -180 0 0 -285 0 -285 -300 0 -300 0 0 285 0 285 -185 0 -185 0 0 -740z" fill="#a4a5a7"/>
<path d="M11755 2141 l-160 -36 -3 -142 -3 -143 -109 0 -110 0 0 -145 0 -145 109 0 109 0 4 -292 c5 -327 9 -350 74 -427 77 -89 192 -126 364 -118 58 3 129 11 158 17 l52 12 0 140 0 140 -22 -7 c-47 -14 -175 -17 -212 -5 -62 20 -66 38 -66 305 l0 235 155 0 155 0 0 145 0 145 -155 0 -155 0 0 180 c0 138 -3 180 -12 179 -7 -1 -85 -18 -173 -38z" fill="#a4a5a7"/>
<path d="M675 1873 c-91 -8 -253 -36 -314 -55 -288 -88 -407 -285 -327 -542 171 -548 1339 -1161 2395 -1257 183 -16 491 -7 641 19 423 75 674 274 736 581 29 146 4 282 -77 417 -47 79 -172 208 -265 276 -77 55 -252 153 -260 145 -2 -2 3 -39 12 -83 23 -111 16 -205 -21 -273 -103 -189 -406 -296 -785 -276 -372 19 -705 104 -1020 261 -357 178 -593 401 -630 595 -9 49 -1 138 17 185 5 15 -7 15 -102 7z" fill="#a4a5a7"/>
<path d="M6281 1824 c-110 -23 -204 -75 -286 -157 -117 -117 -168 -243 -168 -412 3 -422 448 -690 873 -524 73 29 195 106 192 122 -2 11 -213 197 -223 197 -4 0 -11 -5 -14 -10 -4 -6 -30 -22 -58 -37 -45 -23 -64 -27 -142 -28 -76 0 -97 4 -135 24 -53 27 -106 75 -126 114 l-15 27 397 0 397 0 -6 112 c-9 194 -69 334 -192 446 -130 119 -313 166 -494 126z m228 -294 c43 -22 82 -62 105 -107 l17 -33 -226 0 c-153 0 -225 3 -225 11 0 32 58 102 105 127 69 36 157 37 224 2z" fill="#a4a5a7"/>
<path d="M10606 1825 c-88 -17 -285 -80 -313 -100 -17 -13 -14 -21 42 -134 32 -67 61 -121 63 -121 2 0 52 16 110 37 140 47 272 57 345 25 61 -27 87 -69 87 -141 0 -51 -1 -53 -24 -47 -71 18 -191 27 -272 22 -263 -18 -407 -137 -407 -336 0 -207 160 -343 403 -343 120 0 189 17 292 71 4 2 8 -9 10 -25 l3 -28 170 0 170 0 0 395 c0 354 -2 401 -18 454 -22 71 -38 97 -91 154 -43 46 -108 84 -185 109 -67 22 -287 26 -385 8z m297 -700 c14 -6 17 -20 17 -77 l0 -69 -47 -21 c-67 -29 -198 -36 -258 -14 -25 10 -52 27 -60 39 -20 28 -19 77 1 106 30 43 68 52 204 48 69 -2 133 -7 143 -12z" fill="#a4a5a7"/>
</g>
</svg>