<svg xmlns="http://www.w3.org/2000/svg" version="1.0" width="2000.000000pt" height="1657.000000pt" viewBox="0 0 2000.000000 1657.000000" preserveAspectRatio="xMidYMid meet">

<g transform="translate(0.000000,1657.000000) scale(0.100000,-0.100000)" fill="#a4a5a7" stroke="none">
<path d="M9575 16544 c-1831 -147 -3425 -1217 -4241 -2846 -251 -502 -412 -1018 -503 -1613 -73 -477 -73 -1074 0 -1550 224 -1471 1045 -2743 2299 -3568 1207 -793 2718 -1053 4120 -711 851 208 1644 630 2280 1215 488 449 848 923 1140 1504 298 592 467 1179 537 1870 23 237 23 735 -1 975 -89 898 -366 1690 -843 2412 -198 300 -397 543 -663 809 -809 809 -1825 1312 -2975 1474 -320 44 -803 57 -1150 29z m2417 -1437 c121 -39 203 -90 298 -186 94 -95 138 -162 178 -273 25 -67 27 -85 27 -223 0 -139 -2 -156 -28 -232 -111 -323 -456 -535 -787 -484 -167 26 -283 85 -406 206 -67 66 -89 97 -127 175 -62 125 -80 200 -79 330 0 116 10 172 49 270 71 181 234 341 413 406 144 51 324 56 462 11z m-1602 -737 c80 -12 189 -32 243 -46 148 -36 177 -62 237 -213 23 -57 58 -131 78 -165 195 -335 544 -513 932 -476 293 29 280 32 383 -83 310 -345 537 -739 661 -1150 86 -283 142 -687 100 -727 -5 -4 -216 -10 -469 -11 -419 -3 -463 -1 -492 14 -47 25 -62 63 -84 211 -89 587 -520 1150 -1094 1426 -293 141 -557 202 -880 203 -274 1 -502 -41 -755 -139 -66 -26 -122 -45 -124 -43 -12 12 -497 892 -493 895 16 17 278 131 382 167 213 73 542 140 790 161 124 10 444 -3 585 -24z m-1804 -920 c137 -228 249 -420 249 -426 0 -6 -36 -40 -79 -75 -411 -330 -671 -777 -753 -1295 -23 -147 -23 -448 0 -598 59 -374 203 -708 432 -1001 72 -92 260 -278 353 -349 43 -33 60 -52 54 -59 -5 -7 -123 -203 -262 -437 -139 -234 -256 -429 -260 -433 -12 -13 -367 279 -495 408 -325 325 -570 722 -725 1170 -34 99 -41 130 -38 177 5 62 16 82 111 194 297 350 304 831 18 1202 -151 196 -149 186 -83 387 110 335 284 658 499 925 150 187 394 419 606 577 81 60 102 72 112 61 7 -7 124 -200 261 -428z m-1961 -1415 c315 -87 526 -370 526 -705 0 -423 -335 -734 -764 -707 -319 19 -592 254 -658 564 -17 80 -14 224 5 308 36 151 141 314 264 409 99 75 206 122 342 150 47 9 225 -3 285 -19z m6366 -884 c53 -27 59 -75 34 -257 -84 -607 -328 -1122 -760 -1608 -88 -99 -113 -111 -218 -102 -207 18 -385 18 -468 1 -162 -32 -316 -110 -436 -219 -110 -99 -220 -274 -279 -440 -18 -53 -40 -91 -63 -116 -32 -33 -46 -39 -141 -59 -462 -98 -891 -100 -1316 -6 -150 34 -405 118 -553 184 -118 52 -154 76 -149 97 2 7 111 207 243 444 175 314 244 429 255 426 8 -2 60 -21 115 -41 473 -173 964 -184 1405 -30 670 234 1185 816 1312 1480 33 176 48 216 88 243 l34 23 436 -3 c343 -2 441 -6 461 -17z m-1037 -2201 c127 -32 227 -91 332 -195 77 -76 98 -104 137 -185 62 -125 77 -190 77 -325 0 -279 -145 -512 -395 -635 -116 -58 -189 -74 -325 -74 -137 0 -208 16 -330 76 -68 33 -102 58 -171 127 -97 98 -144 173 -184 301 -36 115 -39 276 -6 394 70 253 268 452 513 516 101 26 250 26 352 0z" fill="#a4a5a7"/>
<path d="M4260 5234 c-8 -2 -82 -15 -165 -29 -337 -59 -374 -67 -379 -82 -11 -28 -7 -4893 4 -4913 19 -36 89 -60 320 -109 322 -68 569 -95 890 -95 279 0 408 12 590 55 413 99 724 318 945 663 138 217 244 525 274 798 14 123 14 420 1 563 -70 749 -421 1252 -1014 1450 -168 57 -313 78 -521 78 -242 0 -335 -17 -706 -127 -86 -25 -161 -46 -168 -46 -8 0 -11 236 -11 900 l0 900 -22 -1 c-13 -1 -30 -3 -38 -5z m1145 -2193 c341 -91 561 -352 654 -777 123 -560 12 -1119 -282 -1417 -121 -122 -277 -212 -447 -259 -77 -21 -106 -23 -320 -23 -129 0 -335 6 -457 14 l-223 14 -2 1016 c-2 559 -2 1049 -1 1089 5 129 29 153 232 232 321 124 396 141 611 136 118 -3 174 -9 235 -25z" fill="#a4a5a7"/>
<path d="M15135 4579 c-77 -15 -186 -33 -243 -38 -111 -11 -152 -27 -179 -68 -17 -26 -18 -116 -17 -1623 2 -1618 3 -1670 40 -1935 66 -472 266 -722 671 -841 284 -83 551 -92 868 -29 163 33 484 140 485 163 0 4 -28 114 -62 244 -48 182 -67 238 -79 238 -8 0 -55 -14 -105 -30 -144 -50 -310 -87 -445 -100 -408 -40 -637 106 -722 461 -22 94 -22 95 -22 1044 l0 950 645 5 645 5 0 260 0 260 -650 5 -650 5 -3 528 c-2 494 -3 527 -20 526 -9 -1 -80 -14 -157 -30z" fill="#a4a5a7"/>
<path d="M12089 3610 c-241 -18 -542 -65 -839 -133 l-145 -32 -3 -1678 -2 -1677 305 0 305 0 0 1460 c0 1160 3 1462 13 1465 6 2 113 14 237 26 796 77 1103 -37 1225 -457 62 -213 75 -480 77 -1587 l2 -897 306 0 307 0 5 613 c3 336 2 839 -2 1117 -8 545 -20 682 -75 900 -111 435 -388 713 -815 821 -206 51 -629 79 -901 59z" fill="#a4a5a7"/>
<path d="M13 2753 c10 -1308 36 -1693 134 -1978 171 -496 588 -756 1212 -755 173 0 387 17 656 51 258 32 408 51 604 74 127 15 160 27 183 67 10 18 14 332 16 1568 2 850 0 1591 -3 1648 l-7 102 -304 0 -304 0 -2 -1447 -3 -1448 -70 -17 c-162 -41 -282 -52 -550 -53 -239 0 -267 2 -345 23 -273 73 -440 240 -510 512 -60 233 -61 246 -70 835 -4 303 -9 787 -9 1078 l-1 527 -316 0 -317 0 6 -787z" fill="#a4a5a7"/>
<path d="M7410 2603 c0 -884 5 -1126 30 -1388 69 -721 445 -1107 1160 -1189 173 -20 501 -21 701 -1 274 27 746 110 826 145 26 11 48 31 60 52 21 38 20 -81 16 2056 l-3 1252 -310 0 -310 0 -2 -1440 -3 -1439 -21 -22 c-19 -18 -46 -23 -240 -41 -127 -12 -303 -20 -419 -21 -172 0 -212 2 -285 21 -282 70 -444 243 -520 557 -43 177 -42 164 -66 1923 l-6 472 -304 0 -304 0 0 -937z" fill="#a4a5a7"/>
<path d="M17203 2453 c4 -1148 7 -1217 56 -1453 78 -375 263 -644 556 -808 239 -134 536 -188 975 -179 319 7 577 38 967 117 162 33 195 47 220 93 21 37 20 -74 16 2055 l-3 1252 -315 0 -315 0 0 -1464 0 -1465 -52 -5 c-187 -20 -404 -30 -608 -30 -210 1 -244 3 -315 22 -138 38 -218 83 -304 170 -142 143 -200 298 -248 667 -14 112 -17 267 -20 1118 l-4 987 -305 0 -305 0 4 -1077z" fill="#a4a5a7"/>
</g>
</svg>